Coordinates
version=1
nRows=27
nColumns=12
inDegrees=yes

Units are S.I. units (second, meters, Newtons, ...)
Angles are in degrees

endheader
time	SC_y	SC_z	SC_x	AC_y	AC_z	AC_x	GH_y	GH_z	GH_yy	EL_x	PS_y
       0.0              -46.41          25.83          36.54          61.41         -5.215         -3.869         -151.6          88.78         -117.4          61.65          89.91
   0.01485              -46.41          25.82          36.55          61.41         -5.214         -3.869         -151.6          88.78         -117.3          61.64          89.91
   0.02969              -46.41          25.82          36.56          61.41         -5.214         -3.869         -151.5          88.78         -117.3          61.64          89.92
   0.04454               -46.4          25.82          36.56          61.41         -5.214         -3.869         -151.5          88.77         -117.2          61.64          89.92
   0.05939               -46.4          25.82          36.57           61.4         -5.213         -3.869         -151.5          88.77         -117.2          61.63          89.92
   0.07423               -46.4          25.82          36.58           61.4         -5.213          -3.87         -151.4          88.77         -117.2          61.63          89.93
   0.08908              -46.39          25.81          36.59          61.39         -5.213          -3.87         -151.4          88.77         -117.1          61.62          89.93
    0.1039              -46.39          25.81           36.6          61.39         -5.212          -3.87         -151.4          88.77         -117.0          61.62          89.94
    0.1188              -46.38          25.81          36.61          61.39         -5.212          -3.87         -151.3          88.76         -117.0          61.61          89.94
    0.1336              -46.38          25.81          36.62          61.38         -5.211          -3.87         -151.3          88.76         -116.9           61.6          89.95
    0.1485              -46.37           25.8          36.63          61.38         -5.211          -3.87         -151.3          88.76         -116.8           61.6          89.96
    0.1633              -46.36           25.8          36.65          61.37          -5.21         -3.871         -151.2          88.76         -116.8          61.59          89.96
    0.1782              -46.36           25.8          36.66          61.37          -5.21         -3.871         -151.2          88.75         -116.7          61.58          89.97
     0.193              -46.35          25.79          36.68          61.36         -5.209         -3.871         -151.1          88.75         -116.6          61.57          89.98
    0.2079              -46.34          25.79          36.69          61.36         -5.208         -3.871         -151.0          88.75         -116.5          61.56          89.99
    0.2227              -46.33          25.78          36.71          61.35         -5.207         -3.872         -151.0          88.74         -116.4          61.55           90.0
    0.2375              -46.33          25.78          36.73          61.34         -5.207         -3.872         -150.9          88.74         -116.3          61.54          90.01
    0.2524              -46.32          25.77          36.75          61.33         -5.206         -3.872         -150.8          88.73         -116.2          61.53          90.02
    0.2672               -46.3          25.77          36.78          61.32         -5.205         -3.873         -150.8          88.73         -116.0          61.52          90.03
    0.2821              -46.29          25.76           36.8          61.31         -5.204         -3.873         -150.7          88.72         -115.9          61.51          90.04
    0.2969              -46.28          25.76          36.83           61.3         -5.202         -3.873         -150.6          88.71         -115.7          61.49          90.06
    0.3118              -46.27          25.75          36.86          61.29         -5.201         -3.874         -150.5          88.71         -115.6          61.47          90.07
    0.3266              -46.25          25.74           36.9          61.28           -5.2         -3.874         -150.3           88.7         -115.4          61.45          90.09
    0.3415              -46.23          25.73          36.94          61.26         -5.198         -3.875         -150.2          88.69         -115.2          61.43          90.11
    0.3563              -46.21          25.72          36.98          61.25         -5.196         -3.876         -150.1          88.68         -114.9          61.41          90.13
    0.3712              -46.19          25.71          37.03          61.23         -5.194         -3.876         -149.9          88.67         -114.7          61.39          90.15
     0.386              -46.17          25.69          37.08          61.21         -5.192         -3.877         -149.7          88.66         -114.4          61.36          90.18
